<?xml version="1.0" standalone="no"?>
<!DOCTYPE svg PUBLIC "-//W3C//DTD SVG 1.1//EN" "http://www.w3.org/Graphics/SVG/1.1/DTD/svg11.dtd" >
<svg xmlns="http://www.w3.org/2000/svg">
<metadata></metadata>
<defs>
<font id="gibsonbold" horiz-adv-x="1361" >
<font-face units-per-em="2048" ascent="1638" descent="-410" />
<missing-glyph horiz-adv-x="399" />
<glyph unicode="&#xfb01;" horiz-adv-x="1423" d="M10 707v337h123v11q0 195 96 286q114 103 334 103q158 0 277 -31l-21 -307l-43 6q-36 8 -90 8q-48 0 -70 -12.5t-22 -42.5v-21h205v-337h-205v-707h-461v707h-123zM864 1300q0 99 67.5 159.5t178.5 60.5q112 0 179 -60t67 -160t-67 -159.5t-179 -59.5q-111 0 -178.5 60 t-67.5 159zM881 0v1044h460v-1044h-460z" />
<glyph unicode="&#xfb02;" horiz-adv-x="1437" d="M10 707v337h123v11q0 195 96 286q114 103 334 103q158 0 277 -31l-21 -307l-43 6q-36 8 -90 8q-48 0 -70 -12.5t-22 -42.5v-21h205v-337h-205v-707h-461v707h-123zM891 0v1413h461v-1413h-461z" />
<glyph unicode="&#xfb03;" horiz-adv-x="2160" d="M10 707v337h123v11q0 195 96 286q114 103 334 103q158 0 277 -31l-21 -307l-43 6q-36 8 -90 8q-48 0 -70 -12.5t-22 -42.5v-21h307v11q0 195 96 286q114 103 334 103q158 0 277 -31l-21 -307l-43 6q-36 8 -90 8q-48 0 -70 -12.5t-22 -42.5v-21h205v-337h-205v-707h-461 v707h-307v-707h-461v707h-123zM1632 1300q0 99 67.5 159.5t178.5 60.5q112 0 179 -60t67 -160t-67 -159.5t-179 -59.5q-111 0 -178.5 60t-67.5 159zM1649 0v1044h460v-1044h-460z" />
<glyph unicode="&#xfb04;" horiz-adv-x="2170" d="M10 707v337h123v11q0 195 96 286q114 103 334 103q158 0 277 -31l-21 -307l-43 6q-36 8 -90 8q-48 0 -70 -12.5t-22 -42.5v-21h307v11q0 195 96 286q114 103 334 103q158 0 277 -31l-21 -307l-43 6q-36 8 -90 8q-48 0 -70 -12.5t-22 -42.5v-21h205v-337h-205v-707h-461 v707h-307v-707h-461v707h-123zM1622 0v1413h461v-1413h-461z" />
<glyph horiz-adv-x="2048" />
<glyph horiz-adv-x="2048" />
<glyph unicode="&#xd;" horiz-adv-x="2048" />
<glyph unicode=" "  horiz-adv-x="399" />
<glyph unicode="&#x09;" horiz-adv-x="399" />
<glyph unicode="&#xa0;" horiz-adv-x="399" />
<glyph unicode="!" horiz-adv-x="716" d="M106 199q0 107 68.5 165t183.5 58q113 0 181.5 -58.5t68.5 -164.5t-68.5 -164t-181.5 -58q-115 0 -183.5 58t-68.5 164zM117 1413h481l-41 -921h-399z" />
<glyph unicode="&#x22;" horiz-adv-x="1198" d="M113 1413h419l-51 -584h-317zM666 1413h419l-51 -584h-317z" />
<glyph unicode="#" horiz-adv-x="1454" d="M92 403v222h246l51 266h-221v219h262l82 420h246l-82 -420h235l82 420h246l-82 -420h205v-219h-246l-51 -266h219v-222h-260l-82 -419h-246l82 419h-235l-82 -419h-246l82 419h-205zM584 625h235l51 266h-235z" />
<glyph unicode="$" d="M147 174l185 297q41 -41 137 -82.5t145 -46.5l11 180l-82 31q-138 52 -221 123q-123 110 -123 287q0 198 149 321q107 96 318 113l6 82h178l-6 -86q94 -9 194.5 -49.5t163.5 -94.5l-153 -286q-58 45 -123.5 74.5t-116.5 37.5l-10 -180l133 -55q280 -117 280 -379 q0 -112 -49.5 -198.5t-118.5 -139.5q-54 -42 -140 -73t-146 -36l-6 -75h-179l5 71q-110 8 -229 50t-202 114zM594 1014q0 -50 55 -72l10 137q-27 0 -46 -17.5t-19 -47.5zM762 338q26 5 46.5 23t20.5 42q0 28 -12.5 44t-44.5 34z" />
<glyph unicode="%" horiz-adv-x="1945" d="M61 1038q0 180 110.5 288t289.5 108q178 0 288.5 -108t110.5 -288q0 -179 -110.5 -286t-288.5 -107t-289 107t-111 286zM348 1044q0 -143 113 -143q59 0 88 39t29 104t-29 104.5t-88 39.5q-58 0 -85.5 -39t-27.5 -105zM440 55l885 1399l180 -108l-887 -1397zM1085 362 q0 180 110.5 288t289.5 108q178 0 288.5 -108t110.5 -288q0 -179 -110.5 -286t-288.5 -107t-289 107t-111 286zM1372 369q0 -66 27.5 -105t85.5 -39q59 0 88 39.5t29 104.5t-29 104t-88 39q-113 0 -113 -143z" />
<glyph unicode="&#x26;" horiz-adv-x="1669" d="M61 410q0 132 88.5 230t223.5 142q-133 137 -133 287q0 98 44 172.5t118.5 117.5t161.5 64t184 21q96 0 180 -21t154 -63t110.5 -114t40.5 -167q0 -117 -74 -214t-176 -148l123 -123q39 35 94.5 100.5t93.5 118.5l308 -184q-47 -74 -118.5 -155.5t-137.5 -131.5l323 -322 v-20h-522l-103 102q-109 -74 -207 -100.5t-223 -26.5q-86 0 -165 15.5t-150 49.5t-123.5 84t-83.5 123.5t-31 162.5zM502 420q0 -52 42 -82.5t91 -30.5q108 0 168 45l-199 201l-20 -10q-31 -14 -56.5 -44.5t-25.5 -78.5zM659 1065q0 -14 5 -27.5t13 -24t15 -18t15.5 -14.5 t9.5 -8l35 -37q50 34 76 64t26 65q0 82 -96 82q-47 0 -73 -22t-26 -60z" />
<glyph unicode="'" horiz-adv-x="808" d="M195 1413h419l-51 -584h-317z" />
<glyph unicode="(" horiz-adv-x="788" d="M92 614q0 177 30.5 333.5t92.5 292t101.5 204t112.5 177.5q7 12 11 17l287 -143q-58 -86 -113 -213t-99 -311.5t-44 -356.5q0 -173 44 -357t99 -310.5t113 -212.5l-287 -144q-119 179 -173 284q-175 344 -175 740z" />
<glyph unicode=")" horiz-adv-x="788" d="M61 -266q57 85 112 212t99.5 311.5t44.5 356.5q0 130 -25 269t-65 254t-82.5 206t-83.5 152l287 143q119 -179 173 -284q175 -344 175 -740q0 -177 -30.5 -333.5t-92.5 -292t-101.5 -204t-112.5 -177.5q-7 -12 -11 -17z" />
<glyph unicode="*" horiz-adv-x="1075" d="M102 1106l72 215l270 -113l-24 277h235l-26 -277l272 113l72 -215l-297 -72l205 -256l-185 -129l-159 273l-158 -273l-184 129l204 256z" />
<glyph unicode="+" horiz-adv-x="1505" d="M164 543v327h424v420h327v-420h426v-327h-426v-420h-327v420h-424z" />
<glyph unicode="," horiz-adv-x="716" d="M10 -287l205 666h430l-256 -666h-379z" />
<glyph unicode="-" horiz-adv-x="788" d="M72 362v349h645v-349h-645z" />
<glyph unicode="." horiz-adv-x="716" d="M106 199q0 107 68.5 165t183.5 58q113 0 181.5 -58.5t68.5 -164.5t-68.5 -164t-181.5 -58q-115 0 -183.5 58t-68.5 164z" />
<glyph unicode="/" horiz-adv-x="1157" d="M35 -94l835 1739l252 -117l-835 -1739z" />
<glyph unicode="0" d="M51 705q0 116 22.5 221.5t71.5 199t121 161.5t178.5 107.5t235.5 39.5q130 0 236.5 -39.5t179 -107.5t121.5 -161.5t71.5 -199t22.5 -221.5t-22.5 -221.5t-71.5 -199t-121.5 -162t-179 -108t-236.5 -39.5q-129 0 -235.5 39.5t-178.5 108t-121 162t-71.5 199t-22.5 221.5z M502 711q0 -342 178 -342q180 0 180 342q0 338 -180 338q-178 0 -178 -338z" />
<glyph unicode="1" horiz-adv-x="1024" d="M137 1106v307h682v-1413h-446v1106h-236z" />
<glyph unicode="2" d="M92 1239q63 51 148 96q194 99 415 99q262 0 407.5 -115.5t145.5 -304.5q0 -67 -17 -127.5t-38.5 -101t-64.5 -89t-69 -72t-80 -68.5q-19 -16 -28 -24l-225 -184h594v-348h-1116l-51 287l460 389q117 101 156 157.5t39 118.5q0 61 -42.5 92t-121.5 31q-82 0 -172.5 -39 t-165.5 -114z" />
<glyph unicode="3" d="M92 205l195 276q63 -77 164 -115t184 -38q72 0 125 37t53 96q0 60 -43.5 91.5t-114.5 31.5h-143v307h143q57 0 90 25t33 77t-39 77.5t-104 25.5q-175 0 -338 -113l-154 297q47 32 88.5 54.5t106 48t148.5 38.5t184 13q107 0 204.5 -27t172.5 -75.5t120 -123t45 -164.5 q0 -116 -46.5 -185t-131.5 -111q101 -31 163.5 -117t62.5 -201q0 -110 -50.5 -198.5t-135.5 -143t-189.5 -83t-218.5 -28.5q-207 0 -357 66.5t-217 161.5z" />
<glyph unicode="4" d="M41 256v338l584 819h526v-809h170v-348h-170v-256h-444v256h-666zM451 594h266v379z" />
<glyph unicode="5" d="M92 205l195 276q62 -76 162 -114.5t176 -38.5q33 0 66.5 8.5t65.5 26.5t52 51.5t20 77.5q0 58 -33.5 96.5t-77 52.5t-93.5 14q-142 0 -267 -71l-184 112l92 717h942v-348h-594l-20 -133q74 24 174 24q65 0 131.5 -14t135 -49t121 -86t85.5 -132.5t33 -182.5t-35 -186.5 t-93.5 -145.5t-137 -102t-165 -61.5t-177.5 -19.5q-206 0 -356.5 67t-217.5 161z" />
<glyph unicode="6" d="M92 694q0 344 175.5 542t500.5 198q148 0 272 -41t199 -95l-154 -297q-51 27 -90 43q-103 43 -207 43q-120 0 -188 -66t-68 -194q12 12 31.5 25t58.5 33t101.5 32.5t136.5 12.5q82 0 158 -27.5t138.5 -79t100 -135.5t37.5 -188q0 -108 -38.5 -203t-110 -166t-181 -112.5 t-243.5 -41.5q-136 0 -251 49t-199 139t-131.5 226t-47.5 303zM543 473q0 -67 44.5 -112.5t112.5 -45.5t114 45.5t46 112.5t-46 113.5t-114 46.5t-112.5 -46.5t-44.5 -113.5z" />
<glyph unicode="7" d="M123 1065v348h1055l122 -276l-573 -1137h-491l573 1065h-686z" />
<glyph unicode="8" d="M86 410q0 122 64 203.5t182 117.5q-94 32 -151.5 104.5t-57.5 188.5q0 100 44.5 180t121.5 129t176.5 75t214.5 26q156 0 280 -44t201.5 -138.5t77.5 -227.5q0 -115 -59 -189t-152 -104q118 -36 182 -117.5t64 -203.5q0 -87 -32 -159t-87.5 -122t-131 -85t-162 -51 t-181.5 -16t-181.5 16t-162 51t-131 85t-87.5 122t-32 159zM532 455q0 -64 42 -98.5t106 -34.5q65 0 107 35t42 98t-42 98t-107 35q-64 0 -106 -34.5t-42 -98.5zM557 993q0 -53 32.5 -82.5t90.5 -29.5q60 0 91.5 29t31.5 83t-31.5 83.5t-91.5 29.5q-57 0 -90 -29.5 t-33 -83.5z" />
<glyph unicode="9" d="M66 911q0 108 39.5 203t111.5 166t181 112.5t241 41.5q280 0 455.5 -193t175.5 -524q0 -344 -175.5 -542t-500.5 -198q-148 0 -272 41t-199 95l153 297q38 -23 91 -45q103 -43 206 -43q120 0 188 67t68 195q-12 -12 -31 -25t-58 -33t-101.5 -32.5t-136.5 -12.5 q-65 0 -127.5 17t-118.5 52t-98.5 85t-67 121.5t-24.5 154.5zM502 946q0 -67 44.5 -112.5t112.5 -45.5q69 0 114.5 46t45.5 112q0 67 -46 113.5t-114 46.5t-112.5 -46.5t-44.5 -113.5z" />
<glyph unicode=":" horiz-adv-x="716" d="M106 199q0 107 68.5 165t183.5 58q113 0 181.5 -58.5t68.5 -164.5t-68.5 -164t-181.5 -58q-115 0 -183.5 58t-68.5 164zM106 844q0 107 68.5 165t183.5 58q113 0 181.5 -58.5t68.5 -164.5t-68.5 -163.5t-181.5 -57.5q-115 0 -183.5 57.5t-68.5 163.5z" />
<glyph unicode=";" horiz-adv-x="716" d="M10 -287l205 666h430l-256 -666h-379zM106 844q0 107 68.5 165t183.5 58q113 0 181.5 -58.5t68.5 -164.5t-68.5 -163.5t-181.5 -57.5q-115 0 -183.5 57.5t-68.5 163.5z" />
<glyph unicode="&#x3c;" horiz-adv-x="1505" d="M164 522v369l1177 389v-358l-727 -215l727 -215v-359z" />
<glyph unicode="=" horiz-adv-x="1505" d="M164 276v328h1177v-328h-1177zM164 809v328h1177v-328h-1177z" />
<glyph unicode="&#x3e;" horiz-adv-x="1505" d="M164 133v359l727 215l-727 215v358l1177 -389v-369z" />
<glyph unicode="?" horiz-adv-x="1177" d="M102 1311q26 17 60 34t94.5 39t149 36t188.5 14q212 0 351.5 -113t139.5 -277q0 -119 -34 -185.5t-99 -121.5q-20 -17 -45.5 -34t-53 -31.5t-46.5 -24t-43 -21t-27 -12.5q-12 -6 -18 -11.5t-8.5 -15.5t-3 -17t-0.5 -27v-51h-390v122q0 79 20.5 123t92.5 82l133 72 q10 6 38 21t39.5 23t23.5 24t12 34q0 76 -164 76q-153 0 -307 -96zM260 199q0 107 68.5 165t183.5 58q113 0 181.5 -58.5t68.5 -164.5t-68.5 -164t-181.5 -58q-115 0 -183.5 58t-68.5 164z" />
<glyph unicode="@" horiz-adv-x="1638" d="M72 399q0 161 62.5 301t167.5 236t245 150.5t293 54.5q335 0 532 -178q85 -75 140 -187.5t55 -243.5q0 -257 -144 -405q-61 -60 -140 -93.5t-157 -33.5q-159 0 -194 117q-25 -35 -60 -60q-72 -57 -165 -57q-56 0 -106.5 19t-94.5 57t-70 106t-26 156q0 124 47.5 225.5 t139.5 163t212 61.5q146 0 217 -71l8 41h205l-92 -451q-6 -28 -7.5 -46.5t1.5 -40t17 -32t40 -10.5q65 0 124.5 89.5t59.5 244.5q0 216 -140.5 343.5t-391.5 127.5q-254 0 -419 -162t-165 -422q0 -262 158 -417.5t426 -155.5q96 0 181 14.5t131.5 30t127.5 47.5l62 -133 q-117 -55 -185 -75q-150 -44 -358 -44q-206 0 -373 90t-265.5 258.5t-98.5 384.5zM635 358q0 -34 6.5 -62t21.5 -53.5t44.5 -40t70.5 -14.5q143 0 174 170l41 205q-8 8 -23 18t-49 21.5t-71 11.5q-101 0 -154 -67q-25 -29 -43 -80t-18 -109z" />
<glyph unicode="A" horiz-adv-x="1454" d="M-20 0l491 1413h512l492 -1413h-502l-55 199h-404l-53 -199h-481zM612 553h209l-104 379z" />
<glyph unicode="B" horiz-adv-x="1351" d="M102 0v1413h584q229 0 358 -51q88 -37 148.5 -114.5t60.5 -192.5q0 -114 -60.5 -198t-137.5 -116q125 -36 197.5 -123t72.5 -208q0 -210 -158 -318q-66 -45 -164.5 -68.5t-203.5 -23.5h-697zM563 342h154q39 0 59 5t43 22q41 30 41 86q0 58 -41 88q-22 16 -41 20t-61 4 h-154v-225zM563 874h92q43 0 62 3.5t41 19.5q41 30 41 80q0 29 -9 47t-32 35q-6 4 -11.5 7.5t-10 5.5t-11.5 3.5t-10.5 2t-13 1t-13 0.5h-16h-17.5h-92v-205z" />
<glyph unicode="C" horiz-adv-x="1300" d="M41 705q0 138 38.5 255.5t107.5 204t163.5 147.5t208.5 91.5t240 30.5q189 0 354 -68q63 -25 117 -66l-123 -389q-49 39 -94 62q-112 61 -224 61q-139 0 -231 -82.5t-92 -240.5q0 -80 27 -142.5t73 -100t103 -56.5t120 -19q209 0 338 129l133 -368q-179 -179 -501 -179 q-158 0 -295.5 49t-241 139.5t-162.5 230t-59 311.5z" />
<glyph unicode="D" horiz-adv-x="1474" d="M102 0v1413h533q367 0 563 -153q236 -184 236 -553q0 -366 -236 -553q-197 -154 -563 -154h-533zM563 389h107q143 0 215 72q82 82 82 246q0 178 -82 256q-71 71 -215 71h-107v-645z" />
<glyph unicode="E" horiz-adv-x="1187" d="M102 0v1413h1004v-364h-543v-154h512v-363h-512v-163h563v-369h-1024z" />
<glyph unicode="F" horiz-adv-x="1126" d="M102 0v1413h983v-364h-522v-220h492v-364h-492v-465h-461z" />
<glyph unicode="G" horiz-adv-x="1515" d="M41 707q0 146 41.5 267.5t113 205.5t168.5 142t206.5 85t228.5 27q93 0 177 -16.5t140 -38t110 -55t79 -54.5t56 -51t32 -31l-308 -256q-123 123 -286 123q-128 0 -210.5 -92t-82.5 -256t82.5 -256.5t210.5 -92.5q102 0 157 25q22 8 37 27v102h-215v342h666v-618 q-100 -89 -157 -126q-203 -133 -499 -133q-116 0 -223.5 27t-203 85.5t-166.5 143t-112.5 206.5t-41.5 268z" />
<glyph unicode="H" horiz-adv-x="1515" d="M102 0v1413h463v-512h385v512h463v-1413h-463v522h-385v-522h-463z" />
<glyph unicode="I" horiz-adv-x="667" d="M102 0v1413h463v-1413h-463z" />
<glyph unicode="J" horiz-adv-x="665" d="M-102 -344l20 334q65 -21 113 -21q36 0 53.5 16t17.5 66v1362h461v-1362q0 -225 -100.5 -327.5t-298.5 -102.5q-82 0 -161 11t-105 24z" />
<glyph unicode="K" horiz-adv-x="1392" d="M102 0v1413h461v-430l297 430h543l-457 -569l488 -844h-553l-236 471l-82 -102v-369h-461z" />
<glyph unicode="L" horiz-adv-x="1064" d="M102 0v1413h461v-1034h481v-379h-942z" />
<glyph unicode="M" horiz-adv-x="1832" d="M61 0l82 1413h594l178 -768l181 768h594l82 -1413h-455l-17 809l-184 -809h-399l-185 809l-16 -809h-455z" />
<glyph unicode="N" horiz-adv-x="1556" d="M102 0v1413h502l410 -788l-6 90q-4 102 -4 166v532h450v-1413h-481l-430 788l4 -90q6 -153 6 -166v-532h-451z" />
<glyph unicode="O" horiz-adv-x="1617" d="M41 705q0 225 100.5 392.5t273.5 253t394 85.5t394 -85.5t273.5 -253t100.5 -392.5q0 -169 -58 -308t-161 -230.5t-243.5 -141.5t-305.5 -50t-305.5 50t-243.5 141.5t-161 230.5t-58 308zM506 715q0 -149 82 -239.5t221 -90.5q138 0 219.5 90.5t81.5 239.5t-81.5 239 t-219.5 90q-139 0 -221 -90t-82 -239z" />
<glyph unicode="P" horiz-adv-x="1280" d="M102 0v1413h615q250 0 393 -113q160 -126 160 -374q0 -247 -160 -373q-143 -113 -393 -113h-152v-440h-463zM563 788h76q43 0 67 4.5t46 20.5q51 34 51 113q0 74 -51 112q-36 27 -113 27h-76v-277z" />
<glyph unicode="Q" horiz-adv-x="1617" d="M41 705q0 225 100.5 392.5t273.5 253t394 85.5t394 -85.5t273.5 -253t100.5 -392.5q0 -259 -133 -441l153 -172l-276 -246l-172 191q-151 -62 -340 -62q-165 0 -305.5 50t-243.5 141.5t-161 230.5t-58 308zM506 715q0 -149 82 -239.5t221 -90.5h22q5 0 7 2l-39 43 l276 246l31 -35q0 13 2 21q0 6 1 23t1 30q0 149 -81.5 239t-219.5 90q-139 0 -221 -90t-82 -239z" />
<glyph unicode="R" horiz-adv-x="1351" d="M102 0v1413h615q262 0 409 -102q81 -56 127.5 -145.5t46.5 -202.5q0 -96 -23 -172t-67 -127t-68.5 -72t-66.5 -48q-7 -5 -10 -7l317 -537h-532l-225 471h-60v-471h-463zM563 819h117q71 0 102 25q16 11 24.5 19t18 29t9.5 50t-9 50t-18 29t-25 17q-39 27 -102 27h-117 v-246z" />
<glyph unicode="S" horiz-adv-x="1167" d="M0 164l205 348q89 -74 202 -114t175 -40q104 0 104 60q0 19 -16.5 34t-34.5 22.5t-51 17.5q-7 2 -94.5 29t-110.5 36q-2 1 -23 9t-30.5 12t-31.5 14t-37.5 18.5t-35.5 22.5t-37 29q-61 54 -95 123.5t-34 177.5q0 201 164 342q149 122 416 122q141 0 276 -46t228 -124 l-176 -327q-75 63 -173.5 99t-162.5 36q-58 0 -86.5 -13t-28.5 -44q0 -12 6 -22t19 -17t22.5 -10.5t28 -9.5t22.5 -7q10 -3 75.5 -22.5t92.5 -28.5q155 -51 236 -119q133 -116 133 -307q0 -109 -48.5 -206t-135.5 -163q-158 -121 -418 -121q-291 0 -545 189z" />
<glyph unicode="T" horiz-adv-x="1128" d="M0 1053v360h1128v-360h-333v-1053h-463v1053h-332z" />
<glyph unicode="U" horiz-adv-x="1474" d="M92 604v809h465v-829q0 -107 47 -154q51 -51 133 -51t133 51q45 45 45 154v829h467v-809q0 -167 -36.5 -274t-116.5 -187q-166 -166 -492 -166q-325 0 -491 166q-80 80 -117 187t-37 274z" />
<glyph unicode="V" horiz-adv-x="1474" d="M-20 1413h491l266 -819l267 819h491l-532 -1413h-451z" />
<glyph unicode="W" horiz-adv-x="2078" d="M-20 1413h481l174 -788l174 788h461l174 -788l174 788h481l-399 -1413h-471l-191 799l-188 -799h-471z" />
<glyph unicode="X" horiz-adv-x="1474" d="M-41 0l471 737l-446 676h553l200 -379l199 379h553l-445 -676l472 -737h-553l-226 451l-225 -451h-553z" />
<glyph unicode="Y" d="M-41 1413h512l209 -477l211 477h512l-492 -860v-553h-462v553z" />
<glyph unicode="Z" horiz-adv-x="1351" d="M61 0v328l615 716h-594v369h1188v-317l-615 -717h645v-379h-1239z" />
<glyph unicode="[" horiz-adv-x="788" d="M123 -334v1895h563v-199h-211v-1495h211v-201h-563z" />
<glyph unicode="\" horiz-adv-x="1157" d="M53 1518l234 110l815 -1734l-232 -109z" />
<glyph unicode="]" horiz-adv-x="788" d="M102 -133h209v1495h-209v199h564v-1895h-564v201z" />
<glyph unicode="^" horiz-adv-x="1505" d="M178 614l389 871h369l389 -871h-358l-215 512l-215 -512h-359z" />
<glyph unicode="_" horiz-adv-x="1024" d="M0 -174v348h1024v-348h-1024z" />
<glyph unicode="`" horiz-adv-x="1024" d="M256 1413h369l143 -297h-317z" />
<glyph unicode="a" horiz-adv-x="1208" d="M25 317q0 62 19.5 112.5t53.5 84t74.5 58t88.5 38.5t89.5 20.5t83.5 8.5l242 10v10q0 99 -170 99q-153 0 -328 -92l-112 290q93 44 224.5 76.5t276.5 32.5q157 0 258 -30t172 -93q140 -125 140 -369v-573h-437l-10 92q-117 -117 -266 -117q-61 0 -116.5 10.5t-108 36 t-90.5 64t-61 98t-23 133.5zM485 338q0 -44 29.5 -63t73.5 -19q51 0 92 41v129l-92 -6q-103 -4 -103 -82z" />
<glyph unicode="b" horiz-adv-x="1355" d="M86 0v1413h461v-297q0 -22 -1 -60t-1 -52q-2 -18 -2 -52q32 36 69 56q90 57 232 57q144 0 254.5 -73t168.5 -196t58 -276t-58 -276t-168.5 -196t-254.5 -73q-102 0 -188.5 35.5t-139.5 102.5l6 -113h-436zM532 526q0 -84 47 -131t117 -47t117 47t47 131q0 87 -47 134 t-117 47t-117 -47t-47 -134z" />
<glyph unicode="c" horiz-adv-x="1003" d="M31 520q0 169 80 295t208.5 188t284.5 62q161 0 273 -41q45 -15 96 -41l-72 -348q-95 72 -225 72q-82 0 -136.5 -47t-54.5 -134q0 -86 53.5 -132t147.5 -46q78 0 154 35q30 13 61 37l82 -348q-47 -31 -94 -49q-121 -48 -285 -48q-156 0 -284.5 62t-208.5 188t-80 295z " />
<glyph unicode="d" horiz-adv-x="1355" d="M31 520q0 153 58 276t168.5 196t254.5 73q141 0 231 -57q39 -21 70 -56q-2 16 -2 52q-2 31 -2 112v297h461v-1413h-436l6 113q-53 -67 -139.5 -102.5t-188.5 -35.5q-144 0 -254.5 73t-168.5 196t-58 276zM496 526q0 -84 46.5 -131t116.5 -47t117 47t47 131q0 87 -47 134 t-117 47t-116.5 -47t-46.5 -134z" />
<glyph unicode="e" horiz-adv-x="1202" d="M31 520q0 131 46.5 235.5t127.5 171.5t188.5 102.5t231.5 35.5q247 0 400 -143t153 -379q0 -38 -4 -88q-3 -21 -3 -41h-686q7 -45 41.5 -72.5t73.5 -36t86 -8.5q167 0 287 82l174 -225q-26 -23 -43 -36.5t-68.5 -44t-103 -49t-136 -34t-178.5 -15.5q-126 0 -232.5 35.5 t-186 102.5t-124 171.5t-44.5 235.5zM485 655h267q-5 55 -40 89t-94 34q-56 0 -92 -34t-41 -89z" />
<glyph unicode="f" horiz-adv-x="768" d="M10 707v337h123v11q0 195 96 286q114 103 334 103q158 0 277 -31l-21 -307l-43 6q-36 8 -90 8q-48 0 -70 -12.5t-22 -42.5v-21h205v-337h-205v-707h-461v707h-123z" />
<glyph unicode="g" horiz-adv-x="1355" d="M31 -225l174 286q68 -41 165 -71.5t183 -30.5q154 0 215 61q45 45 45 123v21q-99 -113 -301 -113q-94 0 -179 31.5t-153.5 92.5t-108.5 159.5t-40 222.5q0 100 26.5 184.5t72 143.5t107 100t131 60.5t144.5 19.5q193 0 301 -123l-4 102h461v-839q0 -162 -52 -269.5 t-149 -181.5q-88 -69 -207 -101t-289 -32q-161 0 -305 44t-237 110zM496 553q0 -69 47 -114.5t116 -45.5t116.5 45.5t47.5 114.5q0 68 -47 113t-117 45t-116.5 -44.5t-46.5 -113.5z" />
<glyph unicode="h" horiz-adv-x="1290" d="M86 0v1413h461v-307q0 -14 -1 -56.5t-1 -64.5q-2 -25 -2 -74q96 154 291 154q112 0 190 -34t120.5 -97.5t60.5 -141t18 -178.5v-614h-461v512q0 44 -3.5 72.5t-14 55.5t-32.5 39.5t-57 12.5q-29 0 -49 -9t-31.5 -23.5t-17.5 -39.5t-8 -49t-2 -59v-512h-461z" />
<glyph unicode="i" horiz-adv-x="624" d="M66 1300q0 100 67.5 160t177.5 60q112 0 179 -60t67 -160t-67 -159.5t-179 -59.5q-111 0 -178 60t-67 159zM82 0v1044h461v-1044h-461z" />
<glyph unicode="j" horiz-adv-x="624" d="M-92 -358l10 348l23 -6q28 -4 59 -4q42 0 62 19.5t20 76.5v968h461v-993q0 -229 -109 -327q-109 -103 -317 -103q-98 0 -156 10q-22 2 -53 11zM66 1300q0 100 67.5 160t177.5 60q112 0 179 -60t67 -160t-67 -159.5t-179 -59.5q-111 0 -178 60t-67 159z" />
<glyph unicode="k" horiz-adv-x="1259" d="M86 0v1413h461v-645l221 276h522l-358 -389l368 -655h-522l-164 317l-67 -71v-246h-461z" />
<glyph unicode="l" horiz-adv-x="634" d="M86 0v1413h461v-1413h-461z" />
<glyph unicode="m" horiz-adv-x="1908" d="M82 0v1044h461l-6 -133q107 154 282 154q53 0 97 -7.5t86.5 -26t75 -54t52.5 -86.5q61 93 137 133.5t197 40.5q369 0 369 -440v-625h-461v532q0 82 -20 121t-72 39t-72 -39t-20 -121v-532h-461v532q0 82 -20 121t-72 39t-72 -39t-20 -121v-532h-461z" />
<glyph unicode="n" horiz-adv-x="1294" d="M82 0v1044h461l-6 -133q50 71 118 112.5t174 41.5q112 0 190 -34t120.5 -97.5t61 -141t18.5 -178.5v-614h-461v512q0 91 -21 135.5t-88 44.5q-28 0 -48 -9t-31 -23.5t-17 -39.5t-8 -49t-2 -59v-512h-461z" />
<glyph unicode="o" horiz-adv-x="1269" d="M31 520q0 256 167.5 400.5t436.5 144.5t436.5 -144.5t167.5 -400.5t-167.5 -400.5t-436.5 -144.5t-436.5 144.5t-167.5 400.5zM492 526q0 -81 37.5 -129.5t105.5 -48.5t105.5 48.5t37.5 129.5q0 83 -37.5 132t-105.5 49t-105.5 -49t-37.5 -132z" />
<glyph unicode="p" horiz-adv-x="1351" d="M82 -358v1402h434l-4 -102q123 123 328 123q144 0 254.5 -73t168.5 -196t58 -276t-58 -276t-168.5 -196t-254.5 -73q-206 0 -303 127q6 -51 6 -174v-286h-461zM526 526q0 -84 47 -131t117 -47t117 47t47 131q0 87 -47 134t-117 47t-117 -47t-47 -134z" />
<glyph unicode="q" horiz-adv-x="1351" d="M31 520q0 153 58 276t168.5 196t254.5 73q205 0 328 -123l-6 102h436v-1402h-461v286q0 140 4 174q-35 -51 -107.5 -89t-193.5 -38q-144 0 -254.5 73t-168.5 196t-58 276zM496 526q0 -84 46.5 -131t116.5 -47t117 47t47 131q0 87 -47 134t-117 47t-116.5 -47t-46.5 -134z " />
<glyph unicode="r" horiz-adv-x="901" d="M82 0v1044h461l-6 -133q50 84 111.5 119t150.5 35q51 0 78 -10l24 -11l-20 -419h-21q-69 30 -133 30q-90 0 -143 -67q-41 -53 -41 -178v-410h-461z" />
<glyph unicode="s" horiz-adv-x="997" d="M8 119l156 270q92 -60 192 -85t148 -25q20 0 30 1.5t19.5 8.5t9.5 22q0 36 -174 78q-108 35 -123 41q-17 6 -24.5 9.5t-31.5 16.5t-38.5 25.5t-35.5 36.5t-33.5 50.5t-21.5 65t-9 83.5q0 160 124 255t316 95q88 0 163.5 -12.5t133 -35.5t84 -37t61.5 -36l-125 -258 q-75 47 -156 72.5t-145 25.5q-57 0 -57 -34q0 -17 28 -29.5t85 -26.5q117 -33 147 -47q106 -48 150 -92q86 -86 86 -229q0 -156 -138 -262q-121 -93 -337 -93q-298 0 -484 146z" />
<glyph unicode="t" horiz-adv-x="829" d="M0 707v337h143v256h461v-256h215v-337h-215v-287q0 -44 19.5 -58t62.5 -14t70 6l32 8l21 -352q-143 -35 -287 -35q-182 0 -286 91q-93 84 -93 303v338h-143z" />
<glyph unicode="u" horiz-adv-x="1273" d="M76 410v634h461v-552q0 -75 24.5 -107.5t73.5 -32.5t72.5 32t23.5 108v552h461v-1044h-440l-4 92q-16 -16 -37.5 -32t-58.5 -37.5t-87 -34.5t-104 -13q-111 0 -188.5 34.5t-118.5 92.5q-40 57 -59 127t-19 181z" />
<glyph unicode="v" horiz-adv-x="1249" d="M-20 1044h481l168 -542l170 542h471l-426 -1044h-441z" />
<glyph unicode="w" horiz-adv-x="1812" d="M-10 1044h461l133 -552l133 552h379l133 -552l133 552h461l-338 -1044h-441l-139 512l-137 -512h-440z" />
<glyph unicode="x" horiz-adv-x="1300" d="M-41 0l414 543l-373 501h522l127 -256l129 256h522l-374 -501l415 -543h-522l-170 276l-168 -276h-522z" />
<glyph unicode="y" horiz-adv-x="1249" d="M-20 1044h481l168 -542l170 542h471l-430 -1064q-26 -66 -48.5 -113t-57.5 -96.5t-74.5 -80t-95.5 -50t-124 -19.5q-150 0 -278 31q-52 11 -101 31l93 327q22 -10 65.5 -20t77.5 -10q42 0 63.5 12.5t28.5 48.5z" />
<glyph unicode="z" horiz-adv-x="1095" d="M20 0v256l451 451h-430v337h1014v-245l-441 -441h461v-358h-1055z" />
<glyph unicode="{" horiz-adv-x="788" d="M0 481v267q56 0 89.5 33t33.5 130v349q0 161 70 231t231 70h272v-199h-92q-78 0 -103.5 -25.5t-25.5 -103.5v-342q0 -130 -45.5 -188.5t-132.5 -77.5v-21q87 -19 132.5 -77.5t45.5 -188.5v-344q0 -78 25.5 -102.5t103.5 -24.5h92v-201h-272q-161 0 -231 70.5t-70 232.5 v348q0 97 -33.5 130.5t-89.5 33.5z" />
<glyph unicode="|" horiz-adv-x="788" d="M246 -358v1996h297v-1996h-297z" />
<glyph unicode="}" horiz-adv-x="788" d="M92 -133h92q78 0 102.5 24.5t24.5 102.5v344q0 130 46.5 188.5t134.5 77.5v21q-88 19 -134.5 77.5t-46.5 188.5v342q0 78 -24.5 103.5t-102.5 25.5h-92v199h270q162 0 233 -70t71 -231v-349q0 -97 33 -130t89 -33v-267q-56 0 -89 -33.5t-33 -130.5v-348 q0 -161 -71.5 -232t-232.5 -71h-270v201z" />
<glyph unicode="~" horiz-adv-x="1505" d="M143 727q72 97 174 156t215 59q44 0 81.5 -5t67.5 -15t48.5 -17.5t41.5 -20t28 -14.5q91 -51 174 -51q49 0 107.5 32.5t97.5 80.5l184 -246q-72 -97 -174 -156t-215 -59q-53 0 -97.5 7t-80.5 21.5t-49 21t-39 22.5q-91 51 -175 51q-50 0 -107.5 -32.5t-96.5 -80.5z" />
<glyph unicode="&#xa1;" horiz-adv-x="716" d="M106 844q0 107 68.5 165t183.5 58q113 0 181.5 -58.5t68.5 -164.5t-68.5 -163.5t-181.5 -57.5q-115 0 -183.5 57.5t-68.5 163.5zM117 -369l41 922h399l41 -922h-481z" />
<glyph unicode="&#xa2;" d="M188 623q0 127 43.5 228.5t119 166.5t170.5 102.5t206 46.5v144h209v-150q161 -21 221 -65l-72 -338q-64 36 -149 51v-369q23 3 44.5 8t40.5 12t31 12t26.5 12t17.5 8l71 -328q-23 -17 -59 -33q-73 -34 -172 -47v-145h-209v139q-110 9 -205.5 46.5t-171 102.5t-119 167 t-43.5 229zM629 629q0 -120 98 -168v338q-98 -48 -98 -170z" />
<glyph unicode="&#xa3;" d="M113 0v328h225l6 47q2 8 8 80l4 80q0 31 2 49h-184v245h188q-20 103 -20 215q0 83 36.5 160.5t92.5 126.5q118 103 338 103q119 0 211 -29.5t188 -93.5l-133 -267q-119 72 -215 72q-64 0 -91.5 -34.5t-27.5 -88.5q0 -43 11 -104q2 -23 10 -60h293v-245h-297 q-2 -18 -2 -49l-4 -80q-6 -65 -9 -80l-6 -47h533v-328h-1157z" />
<glyph unicode="&#xa4;" d="M133 424v246h88q-2 6 -2 16v31v41h-86v246h133q33 115 94.5 200t143 134.5t172 72.5t194.5 23q160 0 310 -52q50 -16 110 -51l-112 -327q-61 40 -120 63t-136 23q-156 0 -195 -86h277v-246h-345v-88h345v-246h-277q8 -37 55 -60.5t129 -23.5q157 0 287 100l113 -338 q-1 -1 -18 -13t-32 -21t-42.5 -23.5t-60.5 -25t-75.5 -21t-97 -16t-115.5 -5.5q-486 0 -614 447h-123z" />
<glyph unicode="&#xa5;" d="M-10 1413h502l188 -471l190 471h502l-328 -563h226v-246h-375v-88h375v-246h-375v-270h-430v270h-373v246h373v88h-373v246h225z" />
<glyph unicode="&#xa6;" horiz-adv-x="788" d="M246 -360v835h297v-835h-297zM246 803v835h297v-835h-297z" />
<glyph unicode="&#xa7;" horiz-adv-x="1484" d="M164 -154l235 236q39 -58 133.5 -111t174.5 -53q133 0 133 72q0 63 -103 102l-245 92q-314 119 -314 369q0 127 80 219q36 43 80 68q-25 22 -45 55q-43 73 -43 170q0 75 27 136.5t73.5 104t109.5 72t133.5 43t147.5 13.5q313 0 508 -195l-194 -225q-63 63 -145.5 98 t-141.5 35q-119 0 -119 -68q0 -17 7.5 -29.5t32.5 -26t37.5 -19t56.5 -21.5q6 -2 9 -3.5t8 -3t9 -3.5l188 -72q324 -124 324 -379q0 -127 -82 -213q-40 -40 -82 -59q23 -23 45 -62q47 -84 47 -178q0 -81 -30 -147t-81 -110.5t-120.5 -74.5t-146 -43.5t-160.5 -13.5 q-197 0 -328 56.5t-219 168.5zM522 625q0 -36 20 -62.5t83 -50.5l317 -123l10 14q11 18 11 48q0 38 -20.5 68t-82.5 54l-317 123l-11 -20q-10 -23 -10 -51z" />
<glyph unicode="&#xa8;" horiz-adv-x="1024" d="M127 1264q0 73 48 118t122 45q73 0 120.5 -45t47.5 -118q0 -72 -48 -118t-120 -46q-74 0 -122 46t-48 118zM557 1264q0 73 48 118t122 45q73 0 120.5 -45t47.5 -118q0 -72 -48 -118t-120 -46q-74 0 -122 46t-48 118z" />
<glyph unicode="&#xa9;" horiz-adv-x="1536" d="M41 707q0 151 56.5 286t153 231.5t231.5 153t286 56.5t286 -56.5t231.5 -153t153 -231.5t56.5 -286t-56.5 -286t-153 -231.5t-231.5 -153t-286 -56.5t-286 56.5t-231.5 153t-153 231.5t-56.5 286zM164 707q0 -173 77.5 -311t215.5 -216t311 -78t311 78t215.5 216 t77.5 311t-77.5 311t-215.5 215.5t-311 77.5t-311 -77.5t-215.5 -215.5t-77.5 -311zM348 707q0 197 128.5 318.5t326.5 121.5q190 0 303 -113l-82 -174q-92 92 -215 92q-99 0 -167.5 -62t-68.5 -179q0 -116 68 -178t168 -62q133 0 225 92l82 -174q-123 -123 -313 -123 q-198 0 -326.5 122t-128.5 319z" />
<glyph unicode="&#xaa;" horiz-adv-x="819" d="M66 614q0 54 25.5 93.5t68.5 60t83 29.5t85 12l141 4v6q0 30 -22.5 42.5t-77.5 12.5q-54 0 -115 -16t-96 -39l-66 178q145 62 311 62q191 0 273 -76t82 -225v-336h-273l-8 59q-71 -71 -170 -71q-46 0 -86.5 10.5t-76.5 33t-57 64t-21 96.5zM352 625q0 -52 62 -52 q19 0 41 13l16 12v82l-61 -4q-58 -5 -58 -51z" />
<glyph unicode="&#xab;" horiz-adv-x="1331" d="M143 522l349 482l208 -144l-239 -338l239 -338l-208 -143zM629 522l348 482l211 -144l-242 -338l242 -338l-211 -143z" />
<glyph unicode="&#xac;" horiz-adv-x="1505" d="M164 758v327h1177v-757h-327v430h-850z" />
<glyph unicode="&#xad;" horiz-adv-x="788" d="M72 362v349h645v-349h-645z" />
<glyph unicode="&#xae;" horiz-adv-x="1536" d="M41 707q0 151 56.5 286t153 231.5t231.5 153t286 56.5t286 -56.5t231.5 -153t153 -231.5t56.5 -286t-56.5 -286t-153 -231.5t-231.5 -153t-286 -56.5t-286 56.5t-231.5 153t-153 231.5t-56.5 286zM164 707q0 -173 77.5 -311t215.5 -216t311 -78t311 78t215.5 216 t77.5 311t-77.5 311t-215.5 215.5t-311 77.5t-311 -77.5t-215.5 -215.5t-77.5 -311zM465 276v861h338q153 0 236 -71t83 -196q0 -179 -159 -245l194 -349h-256l-153 318h-64v-318h-219zM684 768h84q63 0 98 20t35 76q0 57 -35.5 78t-97.5 21h-84v-195z" />
<glyph unicode="&#xaf;" horiz-adv-x="1024" d="M127 1161v205h768v-205h-768z" />
<glyph unicode="&#xb0;" horiz-adv-x="921" d="M106 1157q0 147 103.5 247.5t251.5 100.5q147 0 249.5 -100.5t102.5 -247.5t-102.5 -247.5t-249.5 -100.5q-148 0 -251.5 100.5t-103.5 247.5zM297 1157q0 -70 48 -120t116 -50q69 0 118.5 50.5t49.5 119.5t-49.5 118.5t-118.5 49.5t-116.5 -49.5t-47.5 -118.5z" />
<glyph unicode="&#xb1;" horiz-adv-x="1505" d="M164 41v328h1177v-328h-1177zM164 737v328h420v307h338v-307h419v-328h-419v-307h-338v307h-420z" />
<glyph unicode="&#xb2;" horiz-adv-x="921" d="M82 1311q43 34 98 61q126 62 266 62q165 0 259 -69t94 -187q0 -55 -17 -101t-51 -84t-59 -59.5t-68 -52.5l-92 -68h328v-240h-707l-41 189l277 221q75 59 101 91t26 59q0 55 -76 55q-109 0 -225 -103z" />
<glyph unicode="&#xb3;" horiz-adv-x="921" d="M92 707l144 194q43 -49 106 -75.5t109 -26.5q40 0 66 15t26 40q0 57 -82 57h-103v209h103q35 0 48 12t13 35q0 41 -71 41q-107 0 -211 -75l-107 202q65 45 142.5 72t195.5 27q90 0 167.5 -26t129 -81t51.5 -129q0 -71 -23.5 -109t-68.5 -65q123 -53 123 -184 q0 -88 -57 -154t-139.5 -97.5t-172.5 -31.5q-129 0 -219.5 35.5t-169.5 114.5z" />
<glyph unicode="&#xb4;" horiz-adv-x="1024" d="M256 1116l143 297h369l-195 -297h-317z" />
<glyph unicode="&#xb5;" horiz-adv-x="1273" d="M76 -358v1402h461v-552q0 -75 24.5 -107.5t73.5 -32.5t72.5 32t23.5 108v552h461v-1044h-440l-4 92q-32 -32 -102 -57t-140 -25l26 -368h-456z" />
<glyph unicode="&#xb6;" horiz-adv-x="1484" d="M51 922q0 241 139 366t383 125h809v-287h-82v-1484h-286v1484h-195v-1484h-287v788q-102 4 -187.5 35.5t-152 90t-104 152.5t-37.5 214z" />
<glyph unicode="&#xb7;" horiz-adv-x="1024" d="M266 600q0 99 67 159t179 60q110 0 178 -60.5t68 -158.5q0 -102 -67.5 -161.5t-178.5 -59.5q-113 0 -179.5 59.5t-66.5 161.5z" />
<glyph unicode="&#xb8;" horiz-adv-x="1024" d="M281 -307l184 307h276l-143 -307h-317z" />
<glyph unicode="&#xb9;" horiz-adv-x="921" d="M205 1198v215h471v-850h-318v635h-153z" />
<glyph unicode="&#xba;" horiz-adv-x="921" d="M86 735q0 150 105.5 237t269.5 87q165 0 269 -86.5t104 -237.5t-104 -238t-269 -87q-164 0 -269.5 87.5t-105.5 237.5zM373 737q0 -53 24.5 -82.5t63.5 -29.5t62.5 29.5t23.5 82.5t-23.5 83t-62.5 30t-63.5 -30t-24.5 -83z" />
<glyph unicode="&#xbb;" horiz-adv-x="1331" d="M143 184l240 338l-240 338l209 144l348 -482l-348 -481zM629 184l241 338l-241 338l211 144l348 -482l-348 -481z" />
<glyph unicode="&#xbc;" horiz-adv-x="2048" d="M123 1198v215h471v-850h-318v635h-153zM414 55l886 1399l179 -108l-885 -1397zM1106 154v204l420 492h348v-471h113v-225h-113v-154h-318v154h-450zM1393 379h168v194z" />
<glyph unicode="&#xbd;" horiz-adv-x="2048" d="M102 1198v215h471v-850h-317v635h-154zM383 55l887 1399l178 -106l-885 -1399zM1188 737q47 37 98 62q124 61 266 61q165 0 259 -69t94 -187q0 -55 -17 -101t-51 -84t-59 -59.5t-68 -52.5l-92 -67h328v-240h-707l-41 188l277 222q75 59 101 90.5t26 58.5q0 55 -76 55 q-112 0 -226 -102z" />
<glyph unicode="&#xbe;" horiz-adv-x="2048" d="M92 707l144 194q43 -49 106 -75.5t109 -26.5q40 0 66 15t26 40q0 57 -82 57h-103v209h103q35 0 48 12t13 35q0 41 -71 41q-107 0 -211 -75l-107 202q65 45 142.5 72t195.5 27q90 0 167.5 -26t129 -81t51.5 -129q0 -71 -23.5 -109t-68.5 -65q123 -53 123 -184 q0 -88 -57 -154t-139.5 -97.5t-172.5 -31.5q-129 0 -219.5 35.5t-169.5 114.5zM532 55l885 1399l180 -108l-886 -1397zM1106 154v204l420 492h348v-471h113v-225h-113v-154h-318v154h-450zM1393 379h168v194z" />
<glyph unicode="&#xbf;" horiz-adv-x="1177" d="M102 0q0 119 34.5 185.5t99.5 121.5q20 17 45.5 34t53 31.5t46.5 24t43 21t27 12.5q15 7 21.5 17t7.5 19.5t1 35.5v51h389v-123q0 -79 -20 -123t-92 -82l-133 -71q-9 -5 -37.5 -21t-40 -24t-23.5 -24t-12 -34q0 -78 164 -78q148 0 307 99l102 -338q-24 -17 -59 -34 t-95 -39t-148.5 -36t-188.5 -14q-213 0 -352.5 113t-139.5 276zM424 844q0 107 68.5 165t183.5 58q113 0 181.5 -58.5t68.5 -164.5t-68.5 -163.5t-181.5 -57.5q-115 0 -183.5 57.5t-68.5 163.5z" />
<glyph unicode="&#xc0;" horiz-adv-x="1454" d="M-20 0l491 1413h512l492 -1413h-502l-55 199h-404l-53 -199h-481zM393 1772h369l143 -297h-317zM612 553h209l-104 379z" />
<glyph unicode="&#xc1;" horiz-adv-x="1454" d="M-20 0l491 1413h512l492 -1413h-502l-55 199h-404l-53 -199h-481zM547 1475l143 297h369l-195 -297h-317zM612 553h209l-104 379z" />
<glyph unicode="&#xc2;" horiz-adv-x="1454" d="M-20 0l491 1413h512l492 -1413h-502l-55 199h-404l-53 -199h-481zM332 1475l164 297h460l164 -297h-297l-96 163l-98 -163h-297zM612 553h209l-104 379z" />
<glyph unicode="&#xc3;" horiz-adv-x="1454" d="M-20 0l491 1413h512l492 -1413h-502l-55 199h-404l-53 -199h-481zM307 1495q0 110 82 195.5t195 85.5q100 0 168 -45q6 -4 22 -13.5t23.5 -13.5t20 -10t23.5 -8.5t23 -2.5q67 0 99 89l184 -21q0 -110 -82 -196.5t-195 -86.5q-43 0 -78 8.5t-49.5 16t-42.5 23.5 q-68 45 -112 45q-65 0 -96 -86zM612 553h209l-104 379z" />
<glyph unicode="&#xc4;" horiz-adv-x="1454" d="M-20 0l491 1413h512l492 -1413h-502l-55 199h-404l-53 -199h-481zM348 1618q0 72 48 118t120 46q74 0 122 -46t48 -118q0 -73 -48 -118.5t-122 -45.5q-73 0 -120.5 45.5t-47.5 118.5zM612 553h209l-104 379zM768 1618q0 72 48 118t120 46q74 0 122 -46t48 -118 q0 -73 -48 -118.5t-122 -45.5q-73 0 -120.5 45.5t-47.5 118.5z" />
<glyph unicode="&#xc5;" horiz-adv-x="1454" d="M-20 0l491 1413h512l492 -1413h-502l-55 199h-404l-53 -199h-481zM461 1649q0 111 76 168t190 57t190 -57t76 -168t-76 -168.5t-190 -57.5t-190 57.5t-76 168.5zM612 553h209l-104 379zM625 1649q0 -46 27 -69.5t75 -23.5t75 23.5t27 69.5q0 92 -102 92t-102 -92z" />
<glyph unicode="&#xc6;" horiz-adv-x="2017" d="M-92 0l840 1413h1187v-364h-481v-154h451v-363h-451v-163h502v-369h-963v199h-456l-107 -199h-522zM725 553h268v502z" />
<glyph unicode="&#xc7;" horiz-adv-x="1300" d="M41 705q0 138 38.5 255.5t107.5 204t163.5 147.5t208.5 91.5t240 30.5q189 0 354 -68q63 -25 117 -66l-123 -389q-49 39 -94 62q-112 61 -224 61q-139 0 -231 -82.5t-92 -240.5q0 -80 27 -142.5t73 -100t103 -56.5t120 -19q209 0 338 129l133 -368q-52 -52 -143 -101.5 t-211 -64.5l-127 -295h-399l158 307q-48 11 -96 29.5t-102 50t-101.5 71t-92 96t-76 122t-50.5 152.5t-19 184z" />
<glyph unicode="&#xc8;" horiz-adv-x="1187" d="M102 0v1413h1004v-364h-543v-154h512v-363h-512v-163h563v-369h-1024zM317 1772h369l143 -297h-317z" />
<glyph unicode="&#xc9;" horiz-adv-x="1187" d="M102 0v1413h1004v-364h-543v-154h512v-363h-512v-163h563v-369h-1024zM379 1475l143 297h369l-195 -297h-317z" />
<glyph unicode="&#xca;" horiz-adv-x="1187" d="M102 0v1413h1004v-364h-543v-154h512v-363h-512v-163h563v-369h-1024zM209 1475l164 297h461l163 -297h-297l-96 163l-98 -163h-297z" />
<glyph unicode="&#xcb;" horiz-adv-x="1187" d="M102 0v1413h1004v-364h-543v-154h512v-363h-512v-163h563v-369h-1024zM225 1618q0 72 48 118t120 46q74 0 122 -46t48 -118q0 -73 -48 -118.5t-122 -45.5q-73 0 -120.5 45.5t-47.5 118.5zM649 1618q0 72 48 118t122 46q72 0 120 -46t48 -118q0 -73 -47.5 -118.5 t-120.5 -45.5q-74 0 -122 45.5t-48 118.5z" />
<glyph unicode="&#xcc;" horiz-adv-x="667" d="M47 1772h369l143 -297h-317zM102 0v1413h463v-1413h-463z" />
<glyph unicode="&#xcd;" horiz-adv-x="667" d="M102 0v1413h463v-1413h-463zM106 1475l144 297h368l-194 -297h-318z" />
<glyph unicode="&#xce;" horiz-adv-x="667" d="M-61 1475l163 297h461l164 -297h-297l-96 163l-98 -163h-297zM102 0v1413h463v-1413h-463z" />
<glyph unicode="&#xcf;" horiz-adv-x="667" d="M-47 1618q0 72 48 118t120 46q74 0 122 -46t48 -118q0 -73 -48 -118.5t-122 -45.5q-73 0 -120.5 45.5t-47.5 118.5zM102 0v1413h463v-1413h-463zM377 1618q0 72 48 118t122 46q72 0 120 -46t48 -118q0 -73 -47.5 -118.5t-120.5 -45.5q-74 0 -122 45.5t-48 118.5z" />
<glyph unicode="&#xd0;" horiz-adv-x="1474" d="M0 573v287h102v553h533q367 0 563 -153q236 -184 236 -553q0 -366 -236 -553q-197 -154 -563 -154h-533v573h-102zM563 389h107q143 0 215 72q82 82 82 246q0 178 -82 256q-71 71 -215 71h-107v-174h199v-276h-199v-195z" />
<glyph unicode="&#xd1;" horiz-adv-x="1556" d="M102 0v1413h502l410 -788l-6 90q-4 102 -4 166v532h450v-1413h-481l-430 788l4 -90q6 -153 6 -166v-532h-451zM358 1495q0 110 82 195.5t195 85.5q100 0 168 -45q6 -4 22 -13.5t23.5 -13.5t20 -10t23.5 -8.5t23 -2.5q67 0 99 89l184 -21q0 -110 -81.5 -196.5 t-194.5 -86.5q-43 0 -78 8.5t-49.5 16t-42.5 23.5q-68 45 -113 45q-65 0 -96 -86z" />
<glyph unicode="&#xd2;" horiz-adv-x="1617" d="M41 705q0 225 100.5 392.5t273.5 253t394 85.5t394 -85.5t273.5 -253t100.5 -392.5q0 -169 -58 -308t-161 -230.5t-243.5 -141.5t-305.5 -50t-305.5 50t-243.5 141.5t-161 230.5t-58 308zM455 1772h368l144 -297h-318zM506 715q0 -149 82 -239.5t221 -90.5 q138 0 219.5 90.5t81.5 239.5t-81.5 239t-219.5 90q-139 0 -221 -90t-82 -239z" />
<glyph unicode="&#xd3;" horiz-adv-x="1617" d="M41 705q0 225 100.5 392.5t273.5 253t394 85.5t394 -85.5t273.5 -253t100.5 -392.5q0 -169 -58 -308t-161 -230.5t-243.5 -141.5t-305.5 -50t-305.5 50t-243.5 141.5t-161 230.5t-58 308zM506 715q0 -149 82 -239.5t221 -90.5q138 0 219.5 90.5t81.5 239.5t-81.5 239 t-219.5 90q-139 0 -221 -90t-82 -239zM649 1475l144 297h368l-194 -297h-318z" />
<glyph unicode="&#xd4;" horiz-adv-x="1617" d="M41 705q0 225 100.5 392.5t273.5 253t394 85.5t394 -85.5t273.5 -253t100.5 -392.5q0 -169 -58 -308t-161 -230.5t-243.5 -141.5t-305.5 -50t-305.5 50t-243.5 141.5t-161 230.5t-58 308zM414 1475l164 297h460l164 -297h-297l-96 163l-98 -163h-297zM506 715 q0 -149 82 -239.5t221 -90.5q138 0 219.5 90.5t81.5 239.5t-81.5 239t-219.5 90q-139 0 -221 -90t-82 -239z" />
<glyph unicode="&#xd5;" horiz-adv-x="1617" d="M41 705q0 225 100.5 392.5t273.5 253t394 85.5t394 -85.5t273.5 -253t100.5 -392.5q0 -169 -58 -308t-161 -230.5t-243.5 -141.5t-305.5 -50t-305.5 50t-243.5 141.5t-161 230.5t-58 308zM389 1495q0 110 82 195.5t195 85.5q100 0 168 -45q6 -4 22 -13.5t23.5 -13.5 t20 -10t23.5 -8.5t23 -2.5q66 0 98 89l185 -21q0 -110 -82 -196.5t-195 -86.5q-43 0 -78 8.5t-49.5 16t-42.5 23.5q-68 45 -112 45q-66 0 -97 -86zM506 715q0 -149 82 -239.5t221 -90.5q138 0 219.5 90.5t81.5 239.5t-81.5 239t-219.5 90q-139 0 -221 -90t-82 -239z" />
<glyph unicode="&#xd6;" horiz-adv-x="1617" d="M41 705q0 225 100.5 392.5t273.5 253t394 85.5t394 -85.5t273.5 -253t100.5 -392.5q0 -169 -58 -308t-161 -230.5t-243.5 -141.5t-305.5 -50t-305.5 50t-243.5 141.5t-161 230.5t-58 308zM428 1618q0 72 48 118t120 46q74 0 122 -46t48 -118q0 -73 -48 -118.5t-122 -45.5 q-73 0 -120.5 45.5t-47.5 118.5zM506 715q0 -149 82 -239.5t221 -90.5q138 0 219.5 90.5t81.5 239.5t-81.5 239t-219.5 90q-139 0 -221 -90t-82 -239zM852 1618q0 72 48 118t122 46q72 0 120 -46t48 -118q0 -73 -47.5 -118.5t-120.5 -45.5q-74 0 -122 45.5t-48 118.5z" />
<glyph unicode="&#xd7;" horiz-adv-x="1505" d="M168 362l348 345l-348 342l242 241l342 -344l344 344l239 -241l-348 -342l348 -345l-239 -239l-344 342l-342 -342z" />
<glyph unicode="&#xd8;" horiz-adv-x="1617" d="M41 123l135 137q-135 179 -135 445q0 170 58 309t161 231t243.5 141.5t305.5 49.5q238 0 428 -105l145 148l195 -189l-137 -137q137 -182 137 -448q0 -169 -58 -308t-161 -230.5t-243.5 -141.5t-305.5 -50q-238 0 -428 105l-145 -148zM506 715q0 -49 14 -107l410 414 q-61 22 -121 22q-139 0 -221 -90t-82 -239zM700 403q49 -18 109 -18q138 0 219.5 90.5t81.5 239.5q0 53 -8 94z" />
<glyph unicode="&#xd9;" horiz-adv-x="1474" d="M92 604v809h465v-829q0 -107 47 -154q51 -51 133 -51t133 51q45 45 45 154v829h467v-809q0 -167 -36.5 -274t-116.5 -187q-166 -166 -492 -166q-325 0 -491 166q-80 80 -117 187t-37 274zM393 1772h369l143 -297h-317z" />
<glyph unicode="&#xda;" horiz-adv-x="1474" d="M92 604v809h465v-829q0 -107 47 -154q51 -51 133 -51t133 51q45 45 45 154v829h467v-809q0 -167 -36.5 -274t-116.5 -187q-166 -166 -492 -166q-325 0 -491 166q-80 80 -117 187t-37 274zM567 1475l144 297h368l-194 -297h-318z" />
<glyph unicode="&#xdb;" horiz-adv-x="1474" d="M92 604v809h465v-829q0 -107 47 -154q51 -51 133 -51t133 51q45 45 45 154v829h467v-809q0 -167 -36.5 -274t-116.5 -187q-166 -166 -492 -166q-325 0 -491 166q-80 80 -117 187t-37 274zM342 1475l164 297h461l163 -297h-296l-97 163l-98 -163h-297z" />
<glyph unicode="&#xdc;" horiz-adv-x="1474" d="M92 604v809h465v-829q0 -107 47 -154q51 -51 133 -51t133 51q45 45 45 154v829h467v-809q0 -167 -36.5 -274t-116.5 -187q-166 -166 -492 -166q-325 0 -491 166q-80 80 -117 187t-37 274zM356 1618q0 72 48 118t120 46q74 0 122 -46t48 -118q0 -73 -48 -118.5t-122 -45.5 q-73 0 -120.5 45.5t-47.5 118.5zM780 1618q0 72 48 118t122 46q72 0 120 -46t48 -118q0 -73 -47.5 -118.5t-120.5 -45.5q-74 0 -122 45.5t-48 118.5z" />
<glyph unicode="&#xdd;" d="M-41 1413h512l209 -477l211 477h512l-492 -860v-553h-462v553zM502 1475l143 297h369l-195 -297h-317z" />
<glyph unicode="&#xde;" horiz-adv-x="1280" d="M102 0v1413h463v-190h142q250 0 393 -113q160 -126 160 -373q0 -249 -160 -375q-142 -112 -393 -112h-142v-250h-463zM563 598h62q76 0 112 27q51 38 51 112q0 75 -51 113q-21 16 -44.5 20t-67.5 4h-62v-276z" />
<glyph unicode="&#xdf;" horiz-adv-x="1351" d="M86 0v870q0 199 68 318q63 112 178 174q140 72 354 72q118 0 212.5 -23t154 -59.5t99 -86t55.5 -99t16 -101.5q0 -58 -17 -107.5t-44 -82t-53 -52.5t-50 -30q124 -36 193 -132t69 -241q0 -116 -41.5 -202.5t-117 -138.5t-174 -77t-220.5 -25q-48 0 -109 11l-55 12l21 317 l22 -6q28 -4 53 -4q174 0 174 144q0 74 -47.5 108.5t-126.5 34.5h-55v307h41q143 0 143 113q0 52 -35 87.5t-108 35.5q-44 0 -69 -13t-44 -39q-26 -35 -26 -133v-952h-461z" />
<glyph unicode="&#xe0;" horiz-adv-x="1208" d="M25 317q0 62 19.5 112.5t53.5 84t74.5 58t88.5 38.5t89.5 20.5t83.5 8.5l242 10v10q0 99 -170 99q-153 0 -328 -92l-112 290q93 44 224.5 76.5t276.5 32.5q157 0 258 -30t172 -93q140 -125 140 -369v-573h-437l-10 92q-117 -117 -266 -117q-61 0 -116.5 10.5t-108 36 t-90.5 64t-61 98t-23 133.5zM276 1413h369l143 -297h-317zM485 338q0 -44 29.5 -63t73.5 -19q51 0 92 41v129l-92 -6q-103 -4 -103 -82z" />
<glyph unicode="&#xe1;" horiz-adv-x="1208" d="M25 317q0 62 19.5 112.5t53.5 84t74.5 58t88.5 38.5t89.5 20.5t83.5 8.5l242 10v10q0 99 -170 99q-153 0 -328 -92l-112 290q93 44 224.5 76.5t276.5 32.5q157 0 258 -30t172 -93q140 -125 140 -369v-573h-437l-10 92q-117 -117 -266 -117q-61 0 -116.5 10.5t-108 36 t-90.5 64t-61 98t-23 133.5zM403 1116l144 297h368l-194 -297h-318zM485 338q0 -44 29.5 -63t73.5 -19q51 0 92 41v129l-92 -6q-103 -4 -103 -82z" />
<glyph unicode="&#xe2;" horiz-adv-x="1208" d="M25 317q0 62 19.5 112.5t53.5 84t74.5 58t88.5 38.5t89.5 20.5t83.5 8.5l242 10v10q0 99 -170 99q-153 0 -328 -92l-112 290q93 44 224.5 76.5t276.5 32.5q157 0 258 -30t172 -93q140 -125 140 -369v-573h-437l-10 92q-117 -117 -266 -117q-61 0 -116.5 10.5t-108 36 t-90.5 64t-61 98t-23 133.5zM219 1116l164 297h461l164 -297h-297l-97 174l-98 -174h-297zM485 338q0 -44 29.5 -63t73.5 -19q51 0 92 41v129l-92 -6q-103 -4 -103 -82z" />
<glyph unicode="&#xe3;" horiz-adv-x="1208" d="M25 317q0 62 19.5 112.5t53.5 84t74.5 58t88.5 38.5t89.5 20.5t83.5 8.5l242 10v10q0 99 -170 99q-153 0 -328 -92l-112 290q93 44 224.5 76.5t276.5 32.5q157 0 258 -30t172 -93q140 -125 140 -369v-573h-437l-10 92q-117 -117 -266 -117q-61 0 -116.5 10.5t-108 36 t-90.5 64t-61 98t-23 133.5zM205 1137q0 110 81.5 195t194.5 85q100 0 168 -45q5 -3 18.5 -11.5t19.5 -11.5t17.5 -9t19 -8.5t18 -4.5t20.5 -2q66 0 98 88l184 -20q0 -110 -81.5 -196.5t-194.5 -86.5q-43 0 -77.5 8t-50 15.5t-42.5 23.5q-68 45 -113 45q-65 0 -96 -86z M485 338q0 -44 29.5 -63t73.5 -19q51 0 92 41v129l-92 -6q-103 -4 -103 -82z" />
<glyph unicode="&#xe4;" horiz-adv-x="1208" d="M25 317q0 62 19.5 112.5t53.5 84t74.5 58t88.5 38.5t89.5 20.5t83.5 8.5l242 10v10q0 99 -170 99q-153 0 -328 -92l-112 290q93 44 224.5 76.5t276.5 32.5q157 0 258 -30t172 -93q140 -125 140 -369v-573h-437l-10 92q-117 -117 -266 -117q-61 0 -116.5 10.5t-108 36 t-90.5 64t-61 98t-23 133.5zM225 1264q0 73 47.5 118t120.5 45q74 0 122 -45t48 -118q0 -72 -48 -118t-122 -46q-72 0 -120 46t-48 118zM485 338q0 -44 29.5 -63t73.5 -19q51 0 92 41v129l-92 -6q-103 -4 -103 -82zM645 1264q0 73 47.5 118t120.5 45q74 0 122 -45t48 -118 q0 -72 -48 -118t-122 -46q-72 0 -120 46t-48 118z" />
<glyph unicode="&#xe5;" horiz-adv-x="1208" d="M25 317q0 62 19.5 112.5t53.5 84t74.5 58t88.5 38.5t89.5 20.5t83.5 8.5l242 10v10q0 99 -170 99q-153 0 -328 -92l-112 290q93 44 224.5 76.5t276.5 32.5q157 0 258 -30t172 -93q140 -125 140 -369v-573h-437l-10 92q-117 -117 -266 -117q-61 0 -116.5 10.5t-108 36 t-90.5 64t-61 98t-23 133.5zM348 1331q0 106 73 165.5t187 59.5q116 0 189 -59.5t73 -165.5t-73 -165.5t-189 -59.5q-114 0 -187 59.5t-73 165.5zM485 338q0 -44 29.5 -63t73.5 -19q51 0 92 41v129l-92 -6q-103 -4 -103 -82zM512 1331q0 -41 24.5 -66.5t71.5 -25.5 q49 0 74 25.5t25 66.5t-25 66.5t-74 25.5q-47 0 -71.5 -25.5t-24.5 -66.5z" />
<glyph unicode="&#xe6;" horiz-adv-x="1837" d="M25 317q0 62 19.5 112.5t53.5 84t74.5 58t88.5 38.5t89.5 20.5t83.5 8.5l242 10v10q0 99 -170 99q-153 0 -328 -92l-112 290q93 44 224.5 76.5t276.5 32.5q253 0 369 -82q136 82 324 82q247 0 399.5 -142.5t152.5 -379.5q0 -38 -4 -88q-2 -14 -2 -41h-686 q20 -117 201 -117q167 0 287 82l174 -225q-26 -23 -43 -36.5t-68.5 -44t-103 -49t-136 -34t-178.5 -15.5q-262 0 -409 138q-86 -76 -180 -107t-240 -31q-61 0 -116.5 10.5t-108 36t-90.5 64t-61 98t-23 133.5zM485 338q0 -44 29.5 -63t73.5 -19q34 0 70 13.5t53 27.5 q-14 30 -35 129l-88 -6q-22 -3 -37.5 -7t-32 -12.5t-25 -24.5t-8.5 -38zM1120 655h266q-5 56 -39.5 89.5t-93.5 33.5q-56 0 -92 -34t-41 -89z" />
<glyph unicode="&#xe7;" horiz-adv-x="1003" d="M31 520q0 169 80 295t208.5 188t284.5 62q161 0 273 -41q45 -15 96 -41l-72 -348q-95 72 -225 72q-82 0 -136.5 -47t-54.5 -134q0 -86 53.5 -132t147.5 -46q78 0 154 35q30 13 61 37l82 -348l-23 -14q-22 -13 -36 -19q-82 -38 -162 -49l-137 -287h-369l184 291 q-52 13 -103 35.5t-108 66t-99.5 99t-70.5 140.5t-28 185z" />
<glyph unicode="&#xe8;" horiz-adv-x="1202" d="M31 520q0 131 46.5 235.5t127.5 171.5t188.5 102.5t231.5 35.5q247 0 400 -143t153 -379q0 -38 -4 -88q-3 -21 -3 -41h-686q7 -45 41.5 -72.5t73.5 -36t86 -8.5q167 0 287 82l174 -225q-26 -23 -43 -36.5t-68.5 -44t-103 -49t-136 -34t-178.5 -15.5q-126 0 -232.5 35.5 t-186 102.5t-124 171.5t-44.5 235.5zM276 1413h369l143 -297h-317zM485 655h267q-5 55 -40 89t-94 34q-56 0 -92 -34t-41 -89z" />
<glyph unicode="&#xe9;" horiz-adv-x="1202" d="M31 520q0 131 46.5 235.5t127.5 171.5t188.5 102.5t231.5 35.5q247 0 400 -143t153 -379q0 -38 -4 -88q-3 -21 -3 -41h-686q7 -45 41.5 -72.5t73.5 -36t86 -8.5q167 0 287 82l174 -225q-26 -23 -43 -36.5t-68.5 -44t-103 -49t-136 -34t-178.5 -15.5q-126 0 -232.5 35.5 t-186 102.5t-124 171.5t-44.5 235.5zM434 1116l144 297h368l-194 -297h-318zM485 655h267q-5 55 -40 89t-94 34q-56 0 -92 -34t-41 -89z" />
<glyph unicode="&#xea;" horiz-adv-x="1202" d="M31 520q0 131 46.5 235.5t127.5 171.5t188.5 102.5t231.5 35.5q247 0 400 -143t153 -379q0 -38 -4 -88q-3 -21 -3 -41h-686q7 -45 41.5 -72.5t73.5 -36t86 -8.5q167 0 287 82l174 -225q-26 -23 -43 -36.5t-68.5 -44t-103 -49t-136 -34t-178.5 -15.5q-126 0 -232.5 35.5 t-186 102.5t-124 171.5t-44.5 235.5zM219 1116l164 297h461l164 -297h-297l-97 174l-98 -174h-297zM485 655h267q-5 55 -40 89t-94 34q-56 0 -92 -34t-41 -89z" />
<glyph unicode="&#xeb;" horiz-adv-x="1202" d="M31 520q0 131 46.5 235.5t127.5 171.5t188.5 102.5t231.5 35.5q247 0 400 -143t153 -379q0 -38 -4 -88q-3 -21 -3 -41h-686q7 -45 41.5 -72.5t73.5 -36t86 -8.5q167 0 287 82l174 -225q-26 -23 -43 -36.5t-68.5 -44t-103 -49t-136 -34t-178.5 -15.5q-126 0 -232.5 35.5 t-186 102.5t-124 171.5t-44.5 235.5zM246 1264q0 73 47.5 118t120.5 45q74 0 122 -45t48 -118q0 -72 -48 -118t-122 -46q-72 0 -120 46t-48 118zM485 655h267q-5 55 -40 89t-94 34q-56 0 -92 -34t-41 -89zM666 1264q0 73 47.5 118t120.5 45q74 0 122 -45t48 -118 q0 -72 -48 -118t-122 -46q-72 0 -120 46t-48 118z" />
<glyph unicode="&#xec;" horiz-adv-x="624" d="M31 1413h368l144 -297h-318zM82 0v1044h461v-1044h-461z" />
<glyph unicode="&#xed;" horiz-adv-x="624" d="M82 0v1044h461v-1044h-461zM82 1116l143 297h369l-195 -297h-317z" />
<glyph unicode="&#xee;" horiz-adv-x="624" d="M-82 1116l164 297h461l164 -297h-297l-99 174l-96 -174h-297zM82 0v1044h461v-1044h-461z" />
<glyph unicode="&#xef;" horiz-adv-x="624" d="M-68 1264q0 73 48 118t122 45q73 0 120.5 -45t47.5 -118q0 -72 -48 -118t-120 -46q-74 0 -122 46t-48 118zM82 0v1044h461v-1044h-461zM352 1264q0 73 48 118t122 45q73 0 120.5 -45t47.5 -118q0 -72 -48 -118t-120 -46q-74 0 -122 46t-48 118z" />
<glyph unicode="&#xf0;" horiz-adv-x="1269" d="M31 514q0 99 32.5 183.5t85 141.5t119 97.5t133.5 59t131 18.5q53 0 95 -10l39 -11q-39 46 -156 146l-223 -115l-92 174l147 72q-79 52 -168 102l328 164q89 -50 168 -102l241 122l93 -174l-166 -79l53 -46q23 -20 82 -79q52 -59 90 -114t79.5 -137t64 -187t22.5 -226 q0 -167 -78.5 -290.5t-213.5 -186t-308 -62.5t-307.5 62.5t-212.5 186t-78 290.5zM492 522q0 -79 36 -126.5t101 -47.5t102 47.5t37 126.5t-37 126.5t-102 47.5t-101 -47.5t-36 -126.5z" />
<glyph unicode="&#xf1;" horiz-adv-x="1294" d="M82 0v1044h461l-6 -133q50 71 118 112.5t174 41.5q112 0 190 -34t120.5 -97.5t61 -141t18.5 -178.5v-614h-461v512q0 91 -21 135.5t-88 44.5q-28 0 -48 -9t-31 -23.5t-17 -39.5t-8 -49t-2 -59v-512h-461zM236 1137q0 110 81.5 195t194.5 85q100 0 168 -45 q5 -3 18.5 -11.5t19.5 -11.5t17.5 -9t19 -8.5t18 -4.5t20.5 -2q66 0 98 88l184 -20q0 -110 -81.5 -196.5t-194.5 -86.5q-43 0 -77.5 8t-50 15.5t-42.5 23.5q-68 45 -113 45q-65 0 -96 -86z" />
<glyph unicode="&#xf2;" horiz-adv-x="1269" d="M31 520q0 256 167.5 400.5t436.5 144.5t436.5 -144.5t167.5 -400.5t-167.5 -400.5t-436.5 -144.5t-436.5 144.5t-167.5 400.5zM291 1413h364l144 -297h-318zM492 526q0 -81 37.5 -129.5t105.5 -48.5t105.5 48.5t37.5 129.5q0 83 -37.5 132t-105.5 49t-105.5 -49 t-37.5 -132z" />
<glyph unicode="&#xf3;" horiz-adv-x="1269" d="M31 520q0 256 167.5 400.5t436.5 144.5t436.5 -144.5t167.5 -400.5t-167.5 -400.5t-436.5 -144.5t-436.5 144.5t-167.5 400.5zM471 1116l143 297h369l-195 -297h-317zM492 526q0 -81 37.5 -129.5t105.5 -48.5t105.5 48.5t37.5 129.5q0 83 -37.5 132t-105.5 49t-105.5 -49 t-37.5 -132z" />
<glyph unicode="&#xf4;" horiz-adv-x="1269" d="M31 520q0 256 167.5 400.5t436.5 144.5t436.5 -144.5t167.5 -400.5t-167.5 -400.5t-436.5 -144.5t-436.5 144.5t-167.5 400.5zM240 1116l163 297h461l164 -297h-297l-96 174l-98 -174h-297zM492 526q0 -81 37.5 -129.5t105.5 -48.5t105.5 48.5t37.5 129.5q0 83 -37.5 132 t-105.5 49t-105.5 -49t-37.5 -132z" />
<glyph unicode="&#xf5;" horiz-adv-x="1269" d="M31 520q0 256 167.5 400.5t436.5 144.5t436.5 -144.5t167.5 -400.5t-167.5 -400.5t-436.5 -144.5t-436.5 144.5t-167.5 400.5zM215 1137q0 109 82 194.5t195 85.5q99 0 167 -45q5 -3 18.5 -11.5t19.5 -11.5t17.5 -9t19 -8.5t18 -4.5t20.5 -2q66 0 98 88l185 -20 q0 -110 -82 -196.5t-195 -86.5q-43 0 -77.5 8t-50 15.5t-42.5 23.5q-68 45 -112 45q-66 0 -97 -86zM492 526q0 -81 37.5 -129.5t105.5 -48.5t105.5 48.5t37.5 129.5q0 83 -37.5 132t-105.5 49t-105.5 -49t-37.5 -132z" />
<glyph unicode="&#xf6;" horiz-adv-x="1269" d="M31 520q0 256 167.5 400.5t436.5 144.5t436.5 -144.5t167.5 -400.5t-167.5 -400.5t-436.5 -144.5t-436.5 144.5t-167.5 400.5zM256 1264q0 73 47.5 118t120.5 45q74 0 122 -45t48 -118q0 -72 -48 -118t-122 -46q-72 0 -120 46t-48 118zM492 526q0 -81 37.5 -129.5 t105.5 -48.5t105.5 48.5t37.5 129.5q0 83 -37.5 132t-105.5 49t-105.5 -49t-37.5 -132zM676 1264q0 73 47.5 118t120.5 45q74 0 122 -45t48 -118q0 -72 -48 -118t-122 -46q-72 0 -120 46t-48 118z" />
<glyph unicode="&#xf7;" horiz-adv-x="1505" d="M164 543v327h1177v-327h-1177zM530 254q0 91 65.5 156t156.5 65t156 -65t65 -156t-65 -156t-156 -65t-156.5 65t-65.5 156zM530 1157q0 91 65.5 156t156.5 65t156 -65t65 -156t-65 -156t-156 -65t-156.5 65t-65.5 156z" />
<glyph unicode="&#xf8;" horiz-adv-x="1269" d="M31 520q0 256 167.5 400.5t436.5 144.5q183 0 326 -70l104 101l164 -160l-92 -86q102 -136 102 -330q0 -256 -167.5 -400.5t-436.5 -144.5q-190 0 -332 74l-104 -100l-164 157l94 91q-98 131 -98 323zM471 526q0 -20 2 -34l229 229q-33 10 -63 10q-74 0 -121 -54.5 t-47 -150.5zM582 334q24 -12 57 -12q75 0 122.5 54.5t47.5 149.5q0 27 -2 33z" />
<glyph unicode="&#xf9;" horiz-adv-x="1273" d="M76 410v634h461v-552q0 -75 24.5 -107.5t73.5 -32.5t72.5 32t23.5 108v552h461v-1044h-440l-4 92q-16 -16 -37.5 -32t-58.5 -37.5t-87 -34.5t-104 -13q-111 0 -188.5 34.5t-118.5 92.5q-40 57 -59 127t-19 181zM297 1413h369l143 -297h-317z" />
<glyph unicode="&#xfa;" horiz-adv-x="1273" d="M76 410v634h461v-552q0 -75 24.5 -107.5t73.5 -32.5t72.5 32t23.5 108v552h461v-1044h-440l-4 92q-16 -16 -37.5 -32t-58.5 -37.5t-87 -34.5t-104 -13q-111 0 -188.5 34.5t-118.5 92.5q-40 57 -59 127t-19 181zM451 1116l143 297h369l-195 -297h-317z" />
<glyph unicode="&#xfb;" horiz-adv-x="1273" d="M76 410v634h461v-552q0 -75 24.5 -107.5t73.5 -32.5t72.5 32t23.5 108v552h461v-1044h-440l-4 92q-16 -16 -37.5 -32t-58.5 -37.5t-87 -34.5t-104 -13q-111 0 -188.5 34.5t-118.5 92.5q-40 57 -59 127t-19 181zM240 1116l163 297h461l164 -297h-297l-96 174l-98 -174 h-297z" />
<glyph unicode="&#xfc;" horiz-adv-x="1273" d="M76 410v634h461v-552q0 -75 24.5 -107.5t73.5 -32.5t72.5 32t23.5 108v552h461v-1044h-440l-4 92q-16 -16 -37.5 -32t-58.5 -37.5t-87 -34.5t-104 -13q-111 0 -188.5 34.5t-118.5 92.5q-40 57 -59 127t-19 181zM256 1264q0 73 47.5 118t120.5 45q74 0 122 -45t48 -118 q0 -72 -48 -118t-122 -46q-72 0 -120 46t-48 118zM676 1264q0 73 47.5 118t120.5 45q74 0 122 -45t48 -118q0 -72 -48 -118t-122 -46q-72 0 -120 46t-48 118z" />
<glyph unicode="&#xfd;" horiz-adv-x="1249" d="M-20 1044h481l168 -542l170 542h471l-430 -1064q-26 -66 -48.5 -113t-57.5 -96.5t-74.5 -80t-95.5 -50t-124 -19.5q-150 0 -278 31q-52 11 -101 31l93 327q22 -10 65.5 -20t77.5 -10q42 0 63.5 12.5t28.5 48.5zM461 1116l143 297h369l-195 -297h-317z" />
<glyph unicode="&#xfe;" horiz-adv-x="1355" d="M86 -358v1771h461v-297q0 -22 -1 -60t-1 -52q-2 -18 -2 -52q32 36 69 56q90 57 232 57q144 0 254.5 -73t168.5 -196t58 -276t-58 -276t-168.5 -196t-254.5 -73q-220 0 -301 127q0 -33 2 -51q0 -14 1 -52t1 -60v-297h-461zM532 526q0 -84 47 -131t117 -47t117 47t47 131 q0 87 -47 134t-117 47t-117 -47t-47 -134z" />
<glyph unicode="&#xff;" horiz-adv-x="1249" d="M-20 1044h481l168 -542l170 542h471l-430 -1064q-26 -66 -48.5 -113t-57.5 -96.5t-74.5 -80t-95.5 -50t-124 -19.5q-150 0 -278 31q-52 11 -101 31l93 327q22 -10 65.5 -20t77.5 -10q42 0 63.5 12.5t28.5 48.5zM250 1264q0 73 48 118t122 45q73 0 120.5 -45t47.5 -118 q0 -72 -48 -118t-120 -46q-74 0 -122 46t-48 118zM670 1264q0 73 48 118t122 45q73 0 120.5 -45t47.5 -118q0 -72 -48 -118t-120 -46q-74 0 -122 46t-48 118z" />
<glyph unicode="&#x152;" horiz-adv-x="2017" d="M41 705q0 225 100.5 392.5t273.5 253t394 85.5q111 0 205 -23h921v-364h-491v-154h461v-363h-461v-163h512v-369h-932q-78 -25 -215 -25q-165 0 -305.5 50t-243.5 141.5t-161 230.5t-58 308zM506 715q0 -149 82 -239.5t221 -90.5q93 0 174 35v594q-69 30 -174 30 q-139 0 -221 -90t-82 -239z" />
<glyph unicode="&#x153;" horiz-adv-x="1939" d="M31 520q0 256 167.5 400.5t436.5 144.5q117 0 204 -24t165 -78q79 55 160.5 78.5t197.5 23.5q247 0 400 -143t153 -379q0 -38 -4 -88q-2 -14 -2 -41h-686q7 -45 41.5 -72.5t73 -36t85.5 -8.5q167 0 287 82l174 -225q-26 -23 -42.5 -36.5t-68 -44t-103 -49t-136 -34 t-178.5 -15.5q-237 0 -359 101q-66 -48 -150 -74.5t-212 -26.5q-269 0 -436.5 144.5t-167.5 400.5zM492 526q0 -81 37.5 -129.5t105.5 -48.5t105.5 48.5t37.5 129.5q0 83 -37.5 132t-105.5 49t-105.5 -49t-37.5 -132zM1223 655h266q-5 56 -39.5 89.5t-93.5 33.5 q-56 0 -92 -34t-41 -89z" />
<glyph unicode="&#x178;" d="M-41 1413h512l209 -477l211 477h512l-492 -860v-553h-462v553zM299 1618q0 72 48 118t122 46q72 0 120 -46t48 -118q0 -73 -47.5 -118.5t-120.5 -45.5q-74 0 -122 45.5t-48 118.5zM725 1618q0 72 48 118t120 46q74 0 122 -46t48 -118q0 -73 -48 -118.5t-122 -45.5 q-73 0 -120.5 45.5t-47.5 118.5z" />
<glyph unicode="&#x2c6;" horiz-adv-x="1024" d="M117 1116l164 297h460l164 -297h-297l-96 174l-98 -174h-297z" />
<glyph unicode="&#x2dc;" horiz-adv-x="1024" d="M92 1137q0 109 82 194.5t195 85.5q100 0 168 -45q4 -2 21.5 -13t24 -14t20 -9.5t24 -8.5t22.5 -2q67 0 99 88l184 -20q0 -110 -82 -196.5t-195 -86.5q-43 0 -77.5 8t-50 15.5t-42.5 23.5q-68 45 -112 45q-66 0 -97 -86z" />
<glyph unicode="&#x2000;" horiz-adv-x="937" />
<glyph unicode="&#x2001;" horiz-adv-x="1874" />
<glyph unicode="&#x2002;" horiz-adv-x="937" />
<glyph unicode="&#x2003;" horiz-adv-x="1874" />
<glyph unicode="&#x2004;" horiz-adv-x="624" />
<glyph unicode="&#x2005;" horiz-adv-x="468" />
<glyph unicode="&#x2006;" horiz-adv-x="312" />
<glyph unicode="&#x2007;" horiz-adv-x="312" />
<glyph unicode="&#x2008;" horiz-adv-x="234" />
<glyph unicode="&#x2009;" horiz-adv-x="374" />
<glyph unicode="&#x200a;" horiz-adv-x="104" />
<glyph unicode="&#x2010;" horiz-adv-x="788" d="M72 362v349h645v-349h-645z" />
<glyph unicode="&#x2011;" horiz-adv-x="788" d="M72 362v349h645v-349h-645z" />
<glyph unicode="&#x2012;" horiz-adv-x="788" d="M72 362v349h645v-349h-645z" />
<glyph unicode="&#x2013;" horiz-adv-x="1024" d="M0 369v338h1024v-338h-1024z" />
<glyph unicode="&#x2014;" horiz-adv-x="2048" d="M51 369v338h1946v-338h-1946z" />
<glyph unicode="&#x2018;" horiz-adv-x="808" d="M113 829l235 584h379l-184 -584h-430z" />
<glyph unicode="&#x2019;" horiz-adv-x="808" d="M82 829l184 584h430l-235 -584h-379z" />
<glyph unicode="&#x201a;" horiz-adv-x="808" d="M82 -246l184 584h430l-235 -584h-379z" />
<glyph unicode="&#x201c;" horiz-adv-x="1331" d="M123 829l235 584h359l-185 -584h-409zM645 829l236 584h358l-184 -584h-410z" />
<glyph unicode="&#x201d;" horiz-adv-x="1331" d="M92 829l184 584h410l-235 -584h-359zM614 829l185 584h409l-235 -584h-359z" />
<glyph unicode="&#x201e;" horiz-adv-x="1331" d="M92 -246l184 584h410l-235 -584h-359zM614 -246l185 584h409l-235 -584h-359z" />
<glyph unicode="&#x2022;" d="M307 748q0 154 109.5 263t263.5 109t264.5 -109.5t110.5 -262.5q0 -154 -110.5 -264.5t-264.5 -110.5t-263.5 110.5t-109.5 264.5z" />
<glyph unicode="&#x2026;" horiz-adv-x="2048" d="M106 199q0 107 68.5 165t183.5 58q113 0 181.5 -58.5t68.5 -164.5t-68.5 -164t-181.5 -58q-115 0 -183.5 58t-68.5 164zM772 199q0 107 68.5 165t183.5 58q113 0 181.5 -58.5t68.5 -164.5t-68.5 -164t-181.5 -58q-115 0 -183.5 58t-68.5 164zM1438 199q0 107 68.5 165 t183.5 58q113 0 181 -58.5t68 -164.5t-68 -164t-181 -58q-115 0 -183.5 58t-68.5 164z" />
<glyph unicode="&#x202f;" horiz-adv-x="374" />
<glyph unicode="&#x2039;" horiz-adv-x="849" d="M143 522l349 482l215 -150l-242 -332l242 -334l-215 -147z" />
<glyph unicode="&#x203a;" horiz-adv-x="849" d="M143 188l240 334l-240 332l215 150l349 -482l-349 -481z" />
<glyph unicode="&#x205f;" horiz-adv-x="468" />
<glyph unicode="&#x20ac;" d="M133 424v246h88q-2 6 -2 16v31v41h-86v246h133q33 115 94.5 200t143 134.5t172 72.5t194.5 23q160 0 310 -52q50 -16 110 -51l-112 -327q-61 40 -120 63t-136 23q-156 0 -195 -86h277v-246h-345v-88h345v-246h-277q8 -37 55 -60.5t129 -23.5q157 0 287 100l113 -338 q-1 -1 -18 -13t-32 -21t-42.5 -23.5t-60.5 -25t-75.5 -21t-97 -16t-115.5 -5.5q-486 0 -614 447h-123z" />
<glyph unicode="&#x2122;" horiz-adv-x="1894" d="M92 1233v180h649v-180h-215v-680h-219v680h-215zM782 553l52 860h296l144 -543h6l143 543h297l52 -860h-226l-20 563h-6l-148 -563h-190l-148 563h-6l-20 -563h-226z" />
<glyph unicode="&#xe000;" horiz-adv-x="1044" d="M0 0v1044h1044v-1044h-1044z" />
</font>
</defs>
</svg>
