<svg xmlns="http://www.w3.org/2000/svg" width="416" height="388" viewBox="0 0 416 388">
  <g fill="none" fill-rule="evenodd" transform="translate(-2)">
    <rect width="86.154" height="258.462" x="103.517" y="191.553" fill="#e74c3c" rx="8" transform="rotate(-80 146.594 320.784)"/>
    <rect width="86.154" height="258.462" x="90.379" y="139.221" fill="#f39c12" rx="8" transform="rotate(-60 133.456 268.452)"/>
    <rect width="86.154" height="258.462" x="96.682" y="85.65" fill="#18bc9c" rx="8" transform="rotate(-40 139.76 214.88)"/>
    <rect width="86.154" height="258.462" x="120.217" y="36.872" fill="#2c3e50" rx="8" transform="rotate(-20 163.294 166.103)"/>
    <path fill="#fff" d="M159.541 252.121a8.044 8.044 0 01-.156-1.583V8.078c0-4.421 3.585-8.001 8.008-8.001h70.137a8 8 0 018.008 8v128.584c13.474-4.762 27.973-7.353 43.077-7.353 71.373 0 129.231 57.858 129.231 129.23 0 71.373-57.858 129.231-129.23 129.231-71.373 0-129.231-57.858-129.231-129.23 0-2.152.052-4.292.156-6.418zm129.074 49.494c23.791 0 43.077-19.286 43.077-43.077 0-23.79-19.286-43.076-43.077-43.076-23.79 0-43.077 19.286-43.077 43.076 0 23.791 19.287 43.077 43.077 43.077z"/>
  </g>
</svg>
