<?xml version="1.0" encoding="UTF-8"?>
<svg width="416px" height="388px" viewBox="0 0 416 388" version="1.1" xmlns="http://www.w3.org/2000/svg" xmlns:xlink="http://www.w3.org/1999/xlink">
    <!-- Generator: Sketch 49.3 (51167) - http://www.bohemiancoding.com/sketch -->
    <title>bootswatch</title>
    <desc>Created with Sketch.</desc>
    <defs></defs>
    <g id="Page-1" stroke="none" stroke-width="1" fill="none" fill-rule="evenodd">
        <g id="bootswatch" transform="translate(-2.000000, 0.000000)">
            <rect id="Path-2" fill="#E74C3C" transform="translate(146.593847, 320.783896) rotate(-80.000000) translate(-146.593847, -320.783896) " x="103.516923" y="191.553127" width="86.1538462" height="258.461538" rx="8"></rect>
            <rect id="Path-15" fill="#F39C12" transform="translate(133.455591, 268.451625) rotate(-60.000000) translate(-133.455591, -268.451625) " x="90.3786676" y="139.220856" width="86.1538462" height="258.461538" rx="8"></rect>
            <rect id="Path-3" fill="#18BC9C" transform="translate(139.759082, 214.880369) rotate(-40.000000) translate(-139.759082, -214.880369) " x="96.6821594" y="85.6495993" width="86.1538462" height="258.461538" rx="8"></rect>
            <rect id="Path-3" fill="#2C3E50" transform="translate(163.293978, 166.103077) rotate(-20.000000) translate(-163.293978, -166.103077) " x="120.217054" y="36.872308" width="86.1538462" height="258.461538" rx="8"></rect>
            <path d="M159.541173,252.121146 C159.43848,251.609288 159.384615,251.079767 159.384615,250.537653 L159.384615,8.07773184 C159.384615,3.65672746 162.970137,0.0769230769 167.393101,0.0769230769 L237.529976,0.0769230769 C241.959831,0.0769230769 245.538462,3.65900717 245.538462,8.07773184 L245.538462,136.661164 C259.012015,131.898951 273.511089,129.307692 288.615385,129.307692 C359.987568,129.307692 417.846154,187.166278 417.846154,258.538462 C417.846154,329.910645 359.987568,387.769231 288.615385,387.769231 C217.243202,387.769231 159.384615,329.910645 159.384615,258.538462 C159.384615,256.386668 159.437206,254.247158 159.541173,252.121146 Z M288.615385,301.615385 C312.406112,301.615385 331.692308,282.329189 331.692308,258.538462 C331.692308,234.747734 312.406112,215.461538 288.615385,215.461538 C264.824657,215.461538 245.538462,234.747734 245.538462,258.538462 C245.538462,282.329189 264.824657,301.615385 288.615385,301.615385 Z" id="Path-3" fill="#FFFFFF"></path>
        </g>
    </g>
</svg>